<svg xmlns="http://www.w3.org/2000/svg" width="628" height="272" fill="none"><rect width="628" height="272" fill="#ACA7C3" rx="8"/><path fill="#7B61FF" fill-opacity=".6" d="M416 74.4H388V189a7 7 0 0 1-7 7.4H236v23.4a7 7 0 0 0 7 7.3h173c4 0 7-3.1 7-7.3V81.7a7 7 0 0 0-7-7.3Z"/><path fill="#7B61FF" d="M382.9 197.8c4 0 7.1-3.2 7.1-7.4v-139c0-4.2-3-7.4-7.1-7.4H212.1c-4 0-7.1 3.2-7.1 7.4v139c0 4.2 3 7.4 7.1 7.4h170.8Z"/><path fill="#4B31D3" fill-opacity=".6" d="M339.1 89.8c0-12-9.4-21.8-21-21.8-11.5 0-21 9.8-21 21.8s9.5 21.7 21 21.7c11.6 0 21-9.8 21-21.7Z"/><path fill="#4B31D3" fill-opacity=".6" d="M281.1 94a7.3 7.3 0 0 0-5.9 3.1L234 159.6a7.9 7.9 0 0 0-.5 7.6c1.2 2.5 3.6 4 6.4 4h119.5a7 7 0 0 0 6.3-4.2c1.2-2.5 1-5.6-1-7.8l-27.5-35.7a7 7 0 0 0-5.4-2.7c-2.1 0-4.2 1-5.4 2.7l-11.8 15.1L287 97.1a7.3 7.3 0 0 0-5.9-3.2Z"/></svg>