<svg xmlns="http://www.w3.org/2000/svg" width="302" height="336" fill="none"><rect width="302" height="336" fill="#ACA7C3" rx="8"/><path fill="#7B61FF" fill-opacity=".6" d="M253 84H225v120.9c0 4.4-3 7.7-7 7.7H73v24.7c0 4.4 3 7.7 7 7.7h173c4 0 7-3.3 7-7.7V91.7c0-4.4-3-7.7-7-7.7Z"/><path fill="#7B61FF" d="M219.9 214c4 0 7.1-3.4 7.1-7.8V59.8c0-4.4-3-7.8-7.1-7.8H49.1c-4 0-7.1 3.4-7.1 7.8v146.4c0 4.4 3 7.8 7.1 7.8h170.8Z"/><path fill="#4B31D3" fill-opacity=".6" d="M176.1 100.2c0-12.6-9.4-22.9-21-22.9-11.5 0-21 10.3-21 23 0 12.5 9.5 22.8 21 22.8 11.6 0 21-10.3 21-22.9Z"/><path fill="#4B31D3" fill-opacity=".6" d="M118.1 104.6a7.2 7.2 0 0 0-5.9 3.3L71 174a8.7 8.7 0 0 0-.5 7.9 6.8 6.8 0 0 0 6.4 4.1h119.5a7 7 0 0 0 6.3-4.4 8 8 0 0 0-1-8.2l-27.5-37.6a6.8 6.8 0 0 0-5.4-2.8c-2.1 0-4.2 1-5.4 2.8l-11.8 16-27.6-43.8a7.2 7.2 0 0 0-5.9-3.3Z"/></svg>