<svg aria-hidden="true" style="position: absolute; width: 0; height: 0; overflow: hidden;" version="1.1" xmlns="http://www.w3.org/2000/svg" xmlns:xlink="http://www.w3.org/1999/xlink">
    <defs>
        <symbol id="arrow-left" viewBox="0 0 24 24">
            <path stroke-linecap="round" stroke-linejoin="round" stroke-width="1.5" d="M4 12h16M4 12l6-6m-6 6 6 6"></path>
        </symbol>
        <symbol id="arrow-up-small" viewBox="0 0 24 24">
            <path stroke-linecap="round" stroke-linejoin="round" stroke-width="1.5" d="M12 7v10m0-10 4 4m-4-4-4 4"></path>
        </symbol>
        <symbol id="arrow-down-small" viewBox="0 0 24 24">
            <path stroke-linecap="round" stroke-linejoin="round" stroke-width="1.5" d="M12 17V7m0 10-4-4m4 4 4-4"></path>
        </symbol>
        <symbol id="chevron-left" viewBox="0 0 24 24">
            <path d="M8.22 12.72a.75.75 0 0 1-.22-.53v-.38c0-.2.08-.39.22-.53l5.14-5.13a.5.5 0 0 1 .71 0l.71.71a.49.49 0 0 1 0 .7L10.33 12l4.45 4.44a.5.5 0 0 1 0 .71l-.71.7a.5.5 0 0 1-.71 0l-5.14-5.13Z"></path>
        </symbol>
        <symbol id="chevron-right" viewBox="0 0 24 24">
            <path d="M15.78 12.72a.75.75 0 0 0 .22-.53v-.38c0-.2-.08-.39-.22-.53l-5.14-5.13a.5.5 0 0 0-.71 0l-.71.71a.49.49 0 0 0 0 .7L13.67 12l-4.45 4.44a.5.5 0 0 0 0 .71l.71.7a.5.5 0 0 0 .71 0l5.14-5.13Z"></path>
        </symbol>
        <symbol id="chevron-down-small" viewBox="0 0 24 24">
            <path stroke-linecap="round" stroke-linejoin="round" stroke-width="1.5" d="m7 10 5 5 5-5"></path>
        </symbol>
        <symbol id="chevron-up-small" viewBox="0 0 24 24">
            <path stroke-linecap="round" stroke-linejoin="round" stroke-width="1.5" d="m17 14-5-5-5 5"></path>
        </symbol>
        <symbol id="cross-small" viewBox="0 0 24 24">
            <path stroke-linecap="round" stroke-linejoin="round" stroke-width="1.5" d="m16 8-8 8m0-8 8 8"></path>
        </symbol>
        <symbol id="default" viewBox="0 0 302 336">
            <rect width="302" height="336" fill="#ACA7C3" rx="8"/>
            <path fill="#7B61FF" fill-opacity=".6" d="M253 84H225v120.9c0 4.4-3 7.7-7 7.7H73v24.7c0 4.4 3 7.7 7 7.7h173c4 0 7-3.3 7-7.7V91.7c0-4.4-3-7.7-7-7.7Z"/>
            <path fill="#7B61FF" d="M219.9 214c4 0 7.1-3.4 7.1-7.8V59.8c0-4.4-3-7.8-7.1-7.8H49.1c-4 0-7.1 3.4-7.1 7.8v146.4c0 4.4 3 7.8 7.1 7.8h170.8Z"/>
            <path fill="#4B31D3" fill-opacity=".6" d="M176.1 100.2c0-12.6-9.4-22.9-21-22.9-11.5 0-21 10.3-21 23 0 12.5 9.5 22.8 21 22.8 11.6 0 21-10.3 21-22.9Z"/>
            <path fill="#4B31D3" fill-opacity=".6" d="M118.1 104.6a7.2 7.2 0 0 0-5.9 3.3L71 174a8.7 8.7 0 0 0-.5 7.9 6.8 6.8 0 0 0 6.4 4.1h119.5a7 7 0 0 0 6.3-4.4 8 8 0 0 0-1-8.2l-27.5-37.6a6.8 6.8 0 0 0-5.4-2.8c-2.1 0-4.2 1-5.4 2.8l-11.8 16-27.6-43.8a7.2 7.2 0 0 0-5.9-3.3Z"/>
        </symbol>
        <symbol id="default-landscape" viewBox="0 0 628 272">
            <rect width="628" height="272" fill="#ACA7C3" rx="8"/>
            <path fill="#7B61FF" fill-opacity=".6" d="M416 74.4H388V189a7 7 0 0 1-7 7.4H236v23.4a7 7 0 0 0 7 7.3h173c4 0 7-3.1 7-7.3V81.7a7 7 0 0 0-7-7.3Z"/>
            <path fill="#7B61FF" d="M382.9 197.8c4 0 7.1-3.2 7.1-7.4v-139c0-4.2-3-7.4-7.1-7.4H212.1c-4 0-7.1 3.2-7.1 7.4v139c0 4.2 3 7.4 7.1 7.4h170.8Z"/>
            <path fill="#4B31D3" fill-opacity=".6" d="M339.1 89.8c0-12-9.4-21.8-21-21.8-11.5 0-21 9.8-21 21.8s9.5 21.7 21 21.7c11.6 0 21-9.8 21-21.7Z"/>
            <path fill="#4B31D3" fill-opacity=".6" d="M281.1 94a7.3 7.3 0 0 0-5.9 3.1L234 159.6a7.9 7.9 0 0 0-.5 7.6c1.2 2.5 3.6 4 6.4 4h119.5a7 7 0 0 0 6.3-4.2c1.2-2.5 1-5.6-1-7.8l-27.5-35.7a7 7 0 0 0-5.4-2.7c-2.1 0-4.2 1-5.4 2.7l-11.8 15.1L287 97.1a7.3 7.3 0 0 0-5.9-3.2Z"/>
        </symbol>
        <symbol id="sort-by" viewBox="0 0 24 24">
            <path stroke-linecap="round" stroke-width="1.5" d="M14 5a2 2 0 1 0-4 0m4 0a2 2 0 1 1-4 0m4 0h6M10 5H4m12 7a2 2 0 1 0 4 0 2 2 0 0 0-4 0Zm0 0H4m4 7a2 2 0 1 0-4 0 2 2 0 0 0 4 0Zm0 0h12"></path>
        </symbol>
        <symbol id="category" viewBox="0 0 24 24">
            <path stroke-linecap="round" stroke-linejoin="round" stroke-width="1.5" d="m4 4 5 8v6l6 3v-9l5-8H4Z"></path>
        </symbol>
        <symbol id="plus" viewBox="0 0 24 24">
            <path stroke="#fff" stroke-linecap="round" stroke-linejoin="round" stroke-width="1.5" d="M12 4v16m-8-8h16"></path>
        </symbol>
        <symbol id="search" viewBox="0 0 24 24">
            <path d="M19.47 20.53a.75.75 0 1 0 1.06-1.06l-1.06 1.06ZM17.25 10.5a6.75 6.75 0 0 1-6.75 6.75v1.5c4.56 0 8.25-3.7 8.25-8.25h-1.5Zm-6.75 6.75a6.75 6.75 0 0 1-6.75-6.75h-1.5c0 4.56 3.7 8.25 8.25 8.25v-1.5ZM3.75 10.5a6.75 6.75 0 0 1 6.75-6.75v-1.5a8.25 8.25 0 0 0-8.25 8.25h1.5Zm6.75-6.75a6.75 6.75 0 0 1 6.75 6.75h1.5c0-4.56-3.7-8.25-8.25-8.25v1.5Zm10.03 15.72-4.19-4.19-1.06 1.06 4.19 4.19 1.06-1.06Z"></path>
        </symbol>
    </defs>
</svg>
